<svg width="111" height="240" viewBox="0 0 111 240" fill="none" xmlns="http://www.w3.org/2000/svg">
<path d="M85.001 0.000275237L85.0005 11.0001L78.6438 15.4807L91.0199 18.1666L84.7659 21.4396L85.0507 25.6445L71.9122 32.1083L102.388 38.1172L80.1298 48.5981L86.7968 51.4208L86.9704 53.9835L91.3341 55.7875L87.2704 58.4123L87.707 64.8563L84.8755 67.2227L91.2213 69.2173L77.2964 77.2092L92.1851 80.6497L88.9576 83.3178L91.5026 120.888L86.0783 125.229L98.4544 127.915L92.2003 131.188L92.4852 135.393L79.3467 141.857L109.822 147.866L87.5643 158.347L94.2313 161.169L94.4049 163.732L98.7685 165.536L94.7049 168.161L95.1414 174.605L92.31 176.971L98.6558 178.966L84.7309 186.958L99.6196 190.398L96.392 193.066L96.9532 200.04C97.7969 210.525 89.961 219.7 79.473 220.508L70.9579 221.163L68.2602 217.96L64.957 232.88L56.8372 219.029L54.9011 225.393L52.5088 222.584L46.069 223.08L43.4069 219.04L41.6432 223.42L39.0822 223.618L36.321 230.31L25.6356 208.15L19.9076 238.679L13.3231 225.601L9.12103 225.924L5.79052 219.701L3.21869 232.101L0.00097789 232.101" stroke="#F4781B" stroke-width="1.5" stroke-linejoin="round"/>
</svg>
