<svg width="40" height="40" viewBox="0 0 40 40" fill="none" xmlns="http://www.w3.org/2000/svg">
<path d="M13.3342 10.0011V8.33447C13.3342 5.57305 15.5728 3.33447 18.3342 3.33447H21.6676C24.429 3.33447 26.6676 5.57305 26.6676 8.33447V10.0011M3.33423 17.2469C3.33423 17.2469 8.53096 20.7085 16.6303 21.5192M36.6676 17.2469C36.6676 17.2469 31.4708 20.7085 23.3714 21.5192M10.0009 36.6678H30.0009C33.6828 36.6678 36.6676 33.683 36.6676 30.0011V16.6678C36.6676 12.9859 33.6828 10.0011 30.0009 10.0011H10.0009C6.319 10.0011 3.33423 12.9859 3.33423 16.6678V30.0011C3.33423 33.683 6.319 36.6678 10.0009 36.6678Z" stroke="white" stroke-width="1.85714" stroke-linecap="round"/>
<path d="M23.3324 20.2658V21.9325C23.3324 21.9491 23.3324 21.9491 23.3324 21.9658C23.3324 23.7825 23.3158 25.2658 19.9991 25.2658C16.6991 25.2658 16.6658 23.7991 16.6658 21.9825V20.2658C16.6658 18.5991 16.6658 18.5991 18.3324 18.5991H21.6658C23.3324 18.5991 23.3324 18.5991 23.3324 20.2658Z" stroke="white" stroke-width="1.85714" stroke-miterlimit="10" stroke-linecap="round" stroke-linejoin="round"/>
</svg>
