<svg width="61" height="53" viewBox="0 0 61 53" fill="none" xmlns="http://www.w3.org/2000/svg">
<path d="M12.6692 53C8.75898 53 5.70897 51.604 3.51923 48.8119C1.17308 46.0198 0 42.2194 0 37.4108C0 30.2754 1.5641 23.7605 4.69231 17.8661C7.97692 11.9717 13.2167 6.46504 20.4115 1.34619C22.2885 -0.0498583 23.7744 -0.360092 24.8692 0.41549C25.4949 0.880843 25.8077 1.57887 25.8077 2.50956C25.8077 3.28515 25.2603 4.06073 24.1654 4.83631C18.8474 9.3347 15.4064 12.8248 13.8423 15.3067C12.4346 17.6334 11.7308 20.1153 11.7308 22.7523C11.7308 25.5444 12.3564 27.716 13.6077 29.2672C14.859 30.6632 16.2667 31.9042 17.8308 32.99C19.3949 33.9207 20.8026 35.084 22.0538 36.4801C23.3051 37.8761 23.9308 39.9702 23.9308 42.7623C23.9308 45.5544 22.9141 47.9587 20.8808 49.9752C19.0038 51.9917 16.2667 53 12.6692 53ZM47.8615 53C43.9513 53 40.8231 51.604 38.4769 48.8119C36.2872 46.0198 35.1923 42.2194 35.1923 37.4108C35.1923 30.2754 36.7564 23.7605 39.8846 17.8661C43.1692 11.9717 48.409 6.46504 55.6038 1.34619C57.4808 -0.0498583 58.9667 -0.360092 60.0615 0.41549C60.6872 0.880843 61 1.57887 61 2.50956C61 3.28515 60.4526 4.06073 59.3577 4.83631C54.0397 9.3347 50.5987 12.8248 49.0346 15.3067C47.6269 17.6334 46.9231 20.1153 46.9231 22.7523C46.9231 25.5444 47.5487 27.716 48.8 29.2672C50.0513 30.6632 51.459 31.9042 53.0231 32.99C54.5872 33.9207 55.9949 35.084 57.2462 36.4801C58.4974 37.8761 59.1231 39.9702 59.1231 42.7623C59.1231 45.5544 58.1064 47.9587 56.0731 49.9752C54.1962 51.9917 51.459 53 47.8615 53Z" fill="#E9731A" fill-opacity="0.7"/>
</svg>
