<svg width="507" height="85" viewBox="0 0 507 85" fill="none" xmlns="http://www.w3.org/2000/svg">
<g clip-path="url(#clip0_4237_27600)">
<path d="M92.6899 50.67V50.43C92.6899 31.32 106.36 16.2 125.69 16.2C148.3 16.2 158.69 32.77 158.69 52C158.69 53.45 158.69 55.14 158.57 56.71H114.82C116.64 63.85 121.82 67.48 128.97 67.48C134.41 67.48 138.77 65.42 143.48 60.83L151.48 67.48C152.115 68.0085 152.629 68.6682 152.986 69.4139C153.342 70.1596 153.533 70.9736 153.546 71.8001C153.558 72.6266 153.391 73.4459 153.057 74.2019C152.723 74.958 152.229 75.6328 151.61 76.18C145.7 81.4 137.93 84.65 127.73 84.65C107.2 84.65 92.6899 71 92.6899 50.67ZM137.19 45C136.35 37.75 132.11 33.15 125.83 33.15C119.83 33.15 115.67 37.87 114.46 45H137.19Z" fill="white"/>
<path d="M369.86 16.2H388.39C390.301 16.2075 392.16 16.8161 393.706 17.9397C395.251 19.0633 396.404 20.6448 397 22.46L408 55.89L419 22.46C419.596 20.6391 420.753 19.0533 422.305 17.929C423.856 16.8048 425.724 16.1996 427.64 16.2H445.79L418.71 84.65H397L369.86 16.2Z" fill="white"/>
<path d="M68.3399 38.76L102.44 3.97555e-08H77.4399C75.6266 -0.00014457 73.835 0.394222 72.1894 1.15574C70.5437 1.91726 69.0835 3.02769 67.9099 4.41L43.9099 33.87L45.9099 62.31L51.8099 54.63L70.9099 79.09C72.0498 80.8008 73.5947 82.2036 75.4073 83.1735C77.2199 84.1435 79.2441 84.6507 81.2999 84.65H103.53L68.3399 38.76Z" fill="white"/>
<path d="M22.45 62.2V84.65H45.8899V62.2H40.34H22.45Z" fill="url(#paint0_linear_4237_27600)"/>
<path d="M68.3399 38.76H45.8899V44.31V62.2H68.3399V38.76Z" fill="url(#paint1_linear_4237_27600)"/>
<path d="M45.8899 16.31H22.45V38.76H45.8899V16.31Z" fill="url(#paint2_linear_4237_27600)"/>
<path d="M22.45 38.76H0V62.2H22.45V38.76Z" fill="url(#paint3_linear_4237_27600)"/>
<path d="M45.8899 38.76H22.45V62.2H40.34H45.8899V44.31V38.76Z" fill="url(#paint4_linear_4237_27600)"/>
<path d="M45.8899 38.76H22.45V62.2H40.34H45.8899V44.31V38.76Z" fill="url(#paint5_linear_4237_27600)"/>
<path d="M239.81 64.27V64C239.81 50.34 250.18 43.26 265.68 43.26C271.069 43.2645 276.423 44.1287 281.54 45.82V44.72C281.54 37.89 277.27 33.99 268.36 33.99C262.116 33.9767 255.933 35.2215 250.18 37.65L247.56 28.65C247.253 27.6376 247.151 26.5745 247.258 25.5221C247.365 24.4697 247.679 23.4489 248.183 22.5189C248.687 21.5889 249.371 20.7681 250.194 20.104C251.018 19.4399 251.964 18.9457 252.98 18.65C259.22 16.9155 265.674 16.0771 272.15 16.16C284 16.2 292 19 297.28 24.26C302.28 29.14 304.36 35.97 304.36 45.26V83.18H281.42V76.35C276.9 81.35 270.68 84.65 262.02 84.65C249.45 84.65 239.81 77.45 239.81 64.27ZM281.81 59.27V56.22C278.945 55.0881 275.891 54.5079 272.81 54.51C266.1 54.51 262.19 57.81 262.19 62.69V62.93C262.19 67.45 265.61 70.13 270.37 70.13C277 70.13 281.79 65.86 281.79 59.27H281.81Z" fill="white"/>
<path d="M441.5 64.27V64C441.5 50.34 451.87 43.26 467.36 43.26C472.749 43.2645 478.103 44.1287 483.22 45.82V44.72C483.22 37.92 479 34 470.05 34C463.806 33.9856 457.622 35.2304 451.87 37.66L449.24 28.66C448.933 27.6476 448.831 26.5844 448.938 25.5321C449.044 24.4797 449.359 23.4589 449.863 22.5289C450.367 21.5989 451.051 20.7781 451.874 20.114C452.697 19.4499 453.644 18.9557 454.66 18.66C460.9 16.9261 467.354 16.0878 473.83 16.17C485.66 16.17 493.72 18.98 498.96 24.23C503.96 29.11 506.04 35.94 506.04 45.23V83.18H483.1V76.35C478.59 81.35 472.37 84.65 463.7 84.65C451.14 84.65 441.5 77.45 441.5 64.27ZM483.5 59.27V56.22C480.635 55.0871 477.581 54.5069 474.5 54.51C467.79 54.51 463.89 57.81 463.89 62.69V62.93C463.89 67.45 467.3 70.13 472.06 70.13C478.71 70.13 483.47 65.86 483.47 59.27H483.5Z" fill="white"/>
<path d="M308.26 50.67V50.43C308.26 31.32 321.92 16.2 341.26 16.2C363.87 16.2 374.26 32.77 374.26 52C374.26 53.45 374.26 55.14 374.14 56.71H330.39C332.2 63.85 337.39 67.48 344.53 67.48C349.98 67.48 354.33 65.42 359.05 60.83L367.05 67.48C367.685 68.0092 368.198 68.6695 368.553 69.4156C368.909 70.1617 369.099 70.9759 369.111 71.8024C369.122 72.6289 368.954 73.448 368.62 74.2036C368.285 74.9593 367.79 75.6335 367.17 76.18C361.26 81.4 353.5 84.65 343.3 84.65C322.77 84.65 308.26 71 308.26 50.67ZM352.76 45C351.91 37.75 347.68 33.15 341.39 33.15C335.34 33.15 331.23 37.87 330.02 45H352.76Z" fill="white"/>
<path d="M241.48 84.65H218.34C217.125 84.6486 215.929 84.3477 214.858 83.7738C213.787 83.2 212.874 82.3709 212.2 81.36L193.75 53.36C193.748 50.1629 194.903 47.0729 197 44.66C199.085 42.2416 201.957 40.6372 205.11 40.13C208.38 39.59 210.79 38.77 211.84 37.92C212.916 37.034 213.772 35.9115 214.343 34.6401C214.914 33.3687 215.183 31.9826 215.13 30.59V30.35C215.13 23.7 210.3 20.35 202.44 20.35H187.06V77.8C187.06 79.6167 186.338 81.3591 185.054 82.6437C183.769 83.9283 182.027 84.65 180.21 84.65H163.6V0H203.6C216.54 0 225.48 3.39 231.17 9.19C236.17 14.03 238.67 20.56 238.67 28.9V29.14C238.67 42.08 231.77 50.67 221.25 55.14L241.48 84.65Z" fill="white"/>
</g>
<defs>
<linearGradient id="paint0_linear_4237_27600" x1="65.4599" y1="39.22" x2="15.0199" y2="94.35" gradientUnits="userSpaceOnUse">
<stop stop-color="#EB001B"/>
<stop offset="1" stop-color="#F79E1B"/>
</linearGradient>
<linearGradient id="paint1_linear_4237_27600" x1="66.5299" y1="40.19" x2="16.0799" y2="95.33" gradientUnits="userSpaceOnUse">
<stop stop-color="#EB001B"/>
<stop offset="1" stop-color="#F79E1B"/>
</linearGradient>
<linearGradient id="paint2_linear_4237_27600" x1="42.6099" y1="18.31" x2="-7.84005" y2="73.44" gradientUnits="userSpaceOnUse">
<stop stop-color="#EB001B"/>
<stop offset="1" stop-color="#F79E1B"/>
</linearGradient>
<linearGradient id="paint3_linear_4237_27600" x1="41.55" y1="17.34" x2="-8.90001" y2="72.47" gradientUnits="userSpaceOnUse">
<stop stop-color="#EB001B"/>
<stop offset="1" stop-color="#F79E1B"/>
</linearGradient>
<linearGradient id="paint4_linear_4237_27600" x1="54.0399" y1="28.77" x2="3.58994" y2="83.9" gradientUnits="userSpaceOnUse">
<stop stop-color="#EB001B"/>
<stop offset="1" stop-color="#F79E1B"/>
</linearGradient>
<linearGradient id="paint5_linear_4237_27600" x1="41.7899" y1="42.93" x2="23.9899" y2="60.55" gradientUnits="userSpaceOnUse">
<stop stop-color="#DE0503"/>
<stop offset="1" stop-color="#E62103"/>
</linearGradient>
<clipPath id="clip0_4237_27600">
<rect width="506.04" height="84.65" fill="white"/>
</clipPath>
</defs>
</svg>
