<svg width="62" height="62" viewBox="0 0 62 62" fill="none" xmlns="http://www.w3.org/2000/svg">
<g clip-path="url(#clip0_1006_18672)">
<mask id="mask0_1006_18672" style="mask-type:luminance" maskUnits="userSpaceOnUse" x="0" y="0" width="62" height="62">
<path d="M51.8468 29.8077H42.3083L30.3014 41.8146L20.1854 31.6986L32.1923 19.6917V10.1532L42.3455 0H0V62H62V19.6545L51.8468 29.8077Z" fill="white"/>
</mask>
<g mask="url(#mask0_1006_18672)">
<path d="M26.2307 11.9229C33.7789 11.9229 40.5198 15.4489 44.8923 20.9402C48.1362 25.0139 50.0768 30.1692 50.0768 35.769C50.0768 48.9169 39.3786 59.6152 26.2307 59.6152C19.6566 59.6152 13.6951 56.9406 9.37705 52.6226C5.05899 48.3047 2.38452 42.343 2.38452 35.769C2.38452 22.6211 13.0827 11.9229 26.2307 11.9229ZM40.5384 35.769C40.5384 27.8793 34.1204 21.4613 26.2307 21.4613C18.3409 21.4613 11.923 27.8793 11.923 35.769C11.923 43.6587 18.3409 50.0767 26.2307 50.0767C34.1204 50.0767 40.5384 43.6587 40.5384 35.769Z" stroke="#F4781B" stroke-width="2.5" stroke-miterlimit="10"/>
</g>
<path d="M28.6153 33.3846L39.346 22.6538M39.346 22.6538V13.1154L46.6191 5.84229L48.0499 13.95L56.1576 15.3807L48.8845 22.6538H39.346ZM26.2307 31C23.5967 31 21.4614 33.1353 21.4614 35.7692C21.4614 38.4031 23.5967 40.5384 26.2307 40.5384C28.8646 40.5384 30.9999 38.4031 30.9999 35.7692C30.9999 33.1353 28.8646 31 26.2307 31Z" stroke="#F4781B" stroke-width="2.5" stroke-miterlimit="10"/>
</g>
<defs>
<clipPath id="clip0_1006_18672">
<rect width="62" height="62" fill="white"/>
</clipPath>
</defs>
</svg>
