<svg width="36" height="39" viewBox="0 0 36 39" fill="none" xmlns="http://www.w3.org/2000/svg">
<path d="M17.694 16.5136L23.2916 21.8207M16.3783 4.25191L20.0719 6.16715L16.3783 8.0824L14.3582 11.5843L12.3381 8.0824L8.64454 6.16715L12.3381 4.25191L14.3582 0.75L16.3783 4.25191ZM32.1816 8.09234L35.0357 9.57227L32.1816 11.0522L30.6207 13.7581L29.0598 11.0522L26.2057 9.57227L29.0598 8.09234L30.6207 5.38638L32.1816 8.09234ZM31.3762 23.877L32.9523 24.6943L31.3762 25.5116L30.5141 27.006L29.6521 25.5116L28.076 24.6943L29.6521 23.877L30.5141 22.3827L31.3762 23.877ZM3.63156 37.2158L1.46413 35.1608C0.511957 34.2581 0.511957 32.7944 1.46413 31.8917L19.9376 14.3769C20.8898 13.4741 22.4336 13.4741 23.3857 14.3769L25.5532 16.4318C26.5054 17.3346 26.5054 18.7983 25.5532 19.701L7.0797 37.2158C6.12753 38.1185 4.58374 38.1185 3.63156 37.2158Z" stroke="white" stroke-width="1.5" stroke-miterlimit="10" stroke-linecap="round" stroke-linejoin="round"/>
</svg>
