<svg width="80" height="80" viewBox="0 0 80 80" fill="none" xmlns="http://www.w3.org/2000/svg">
<path d="M59.625 36.3218C64.275 35.6684 67.855 31.6818 67.865 26.8518C67.865 22.0918 64.395 18.1451 59.845 17.3984" stroke="#252B37" stroke-width="2.5" stroke-linecap="round" stroke-linejoin="round"/>
<path d="M65.7617 47.5C70.2651 48.1733 73.4084 49.75 73.4084 53C73.4084 55.2367 71.9284 56.69 69.5351 57.6033" stroke="#252B37" stroke-width="2.5" stroke-linecap="round" stroke-linejoin="round"/>
<path fill-rule="evenodd" clip-rule="evenodd" d="M39.6211 48.8789C28.9078 48.8789 19.7578 50.5022 19.7578 56.9856C19.7578 63.4656 28.8511 65.1356 39.6211 65.1356C50.3345 65.1356 59.4811 63.5289 59.4811 57.0422C59.4811 50.5556 50.3911 48.8789 39.6211 48.8789Z" stroke="#252B37" stroke-width="2.5" stroke-linecap="round" stroke-linejoin="round"/>
<path fill-rule="evenodd" clip-rule="evenodd" d="M39.6207 39.626C46.6507 39.626 52.3507 33.9293 52.3507 26.896C52.3507 19.866 46.6507 14.166 39.6207 14.166C32.5907 14.166 26.8907 19.866 26.8907 26.896C26.8641 33.9027 32.5207 39.6027 39.5274 39.626H39.6207Z" stroke="#252B37" stroke-width="2.5" stroke-linecap="round" stroke-linejoin="round"/>
<path d="M19.615 36.3218C14.9617 35.6684 11.385 31.6818 11.375 26.8518C11.375 22.0918 14.845 18.1451 19.395 17.3984" stroke="#252B37" stroke-width="2.5" stroke-linecap="round" stroke-linejoin="round"/>
<path d="M13.4787 47.5C8.97536 48.1733 5.83203 49.75 5.83203 53C5.83203 55.2367 7.31203 56.69 9.70536 57.6033" stroke="#252B37" stroke-width="2.5" stroke-linecap="round" stroke-linejoin="round"/>
</svg>
