<svg width="62" height="62" viewBox="0 0 62 62" fill="none" xmlns="http://www.w3.org/2000/svg">
<path d="M46 30.5312V49.3438C46 51.1559 44.5508 52.625 42.7632 52.625H11.4737L5 57V25.2812C5 23.4691 6.44924 22 8.23684 22H28.9526" stroke="#F4781B" stroke-width="2.5" stroke-miterlimit="10" stroke-linecap="round" stroke-linejoin="round"/>
<path d="M49.3 13.6667V8.25C49.3 6.45513 47.8225 5 46 5C44.1775 5 42.7 6.45513 42.7 8.25V9.58088C42.7 11.9993 41.0721 14.1248 38.711 14.7891L35 15.8333V27.2083C35.6683 28.3602 36.6339 29.3176 37.799 29.9834C38.9641 30.6493 40.2872 31 41.6342 31H52.6C55.03 31 57 29.06 57 26.6667V18C57 15.6067 55.03 13.6667 52.6 13.6667H49.3Z" stroke="#F4781B" stroke-width="2.5" stroke-miterlimit="10" stroke-linecap="round" stroke-linejoin="round"/>
<path d="M29 31H35V14H29V31Z" stroke="#F4781B" stroke-width="2.5" stroke-miterlimit="10" stroke-linecap="round" stroke-linejoin="round"/>
<path d="M11 32H22" stroke="#F4781B" stroke-width="2.5" stroke-miterlimit="10" stroke-linecap="round" stroke-linejoin="round"/>
<path d="M11 39H40" stroke="#F4781B" stroke-width="2.5" stroke-miterlimit="10" stroke-linecap="round" stroke-linejoin="round"/>
<path d="M11 45H40" stroke="#F4781B" stroke-width="2.5" stroke-miterlimit="10" stroke-linecap="round" stroke-linejoin="round"/>
</svg>
