<svg width="62" height="62" viewBox="0 0 62 62" fill="none" xmlns="http://www.w3.org/2000/svg">
<path fill-rule="evenodd" clip-rule="evenodd" d="M50.6219 3.34117C50.4965 2.9516 50.2507 2.61186 49.92 2.37086C49.5892 2.12985 49.1905 2 48.7812 2C48.372 2 47.9733 2.12985 47.6425 2.37086C47.3118 2.61186 47.066 2.9516 46.9406 3.34117L46.0591 6.05754L43.3369 6.94104C42.5425 7.20067 42 7.94467 42 8.78361C42 9.62254 42.5425 10.3665 43.3369 10.6262L46.0591 11.5097L46.9406 14.226C47.066 14.6156 47.3118 14.9553 47.6425 15.1964C47.9733 15.4374 48.372 15.5672 48.7812 15.5672C49.1905 15.5672 49.5892 15.4374 49.92 15.1964C50.2507 14.9553 50.4965 14.6156 50.6219 14.226L51.5034 11.5097L54.2256 10.6262C55.02 10.3665 55.5625 9.62254 55.5625 8.78361C55.5625 7.94467 55.02 7.20067 54.2256 6.94104L51.5034 6.05754L50.6219 3.34117Z" fill="#F4781B"/>
<path d="M15 15.5H23.5M15 23.5H23.5M15 31.5H32.5M15 39H41M15 47H41M41 2H13C10.7909 2 9 3.79086 9 6V56C9 58.2091 10.7909 60 13 60H43C45.2091 60 47 58.2091 47 56V25M37 9L34 16.5L26.5 19L34 22L37 30L39.5 22L47 20L39.5 16.5L37 9Z" stroke="#F4781B" stroke-width="2.5" stroke-linecap="round" stroke-linejoin="round"/>
</svg>
