<svg width="360" height="360" viewBox="0 0 360 360" fill="none" xmlns="http://www.w3.org/2000/svg">
<path d="M311.49 308.175H58.6865C58.4042 308.175 58.1738 307.946 58.1738 307.662C58.1738 307.38 58.4028 307.149 58.6865 307.149H311.49C311.772 307.149 312.003 307.378 312.003 307.662C312.003 307.944 311.774 308.175 311.49 308.175Z" fill="#D9D9E0"/>
<path d="M300.396 125.409H69.7832V307.661H300.396V125.409Z" fill="white"/>
<path d="M300.908 308.174H69.2695V124.896H300.906V308.174H300.908ZM70.2948 307.149H299.883V125.922H70.2948V307.149Z" fill="#D9D9E0"/>
<path d="M300.396 127.038H69.7832V119.368C69.7832 111.44 76.2099 105.014 84.1371 105.014H286.042C293.97 105.014 300.396 111.44 300.396 119.368V127.038Z" fill="#FAFAFA"/>
<path d="M300.908 127.55H69.2695V119.368C69.2695 111.17 75.9382 104.501 84.1361 104.501H286.041C294.238 104.501 300.908 111.17 300.908 119.368V127.55ZM70.2948 126.526H299.883V119.368C299.883 111.736 293.673 105.526 286.041 105.526H84.1361C76.5041 105.526 70.2948 111.736 70.2948 119.368V126.526Z" fill="#D9D9E0"/>
<path d="M80.1999 118.989C81.8366 118.989 83.1634 117.662 83.1634 116.025C83.1634 114.388 81.8366 113.062 80.1999 113.062C78.5631 113.062 77.2363 114.388 77.2363 116.025C77.2363 117.662 78.5631 118.989 80.1999 118.989Z" fill="white"/>
<path d="M88.3678 118.989C90.0045 118.989 91.3313 117.662 91.3313 116.025C91.3313 114.388 90.0045 113.062 88.3678 113.062C86.7311 113.062 85.4043 114.388 85.4043 116.025C85.4043 117.662 86.7311 118.989 88.3678 118.989Z" fill="white"/>
<path d="M96.5358 118.989C98.1725 118.989 99.4993 117.662 99.4993 116.025C99.4993 114.388 98.1725 113.062 96.5358 113.062C94.8991 113.062 93.5723 114.388 93.5723 116.025C93.5723 117.662 94.8991 118.989 96.5358 118.989Z" fill="white"/>
<path d="M188.027 225.757L214.352 223.171C220.855 222.531 226.744 227.034 227.832 233.478L240.354 307.661H144.512V236.253C144.512 229.075 150.571 223.387 157.734 223.84L188.027 225.757Z" fill="#75E0A7"/>
<path d="M144.511 308.175C144.228 308.175 143.998 307.946 143.998 307.662V236.254C143.998 235.972 144.227 235.741 144.511 235.741C144.794 235.741 145.023 235.97 145.023 236.254V307.662C145.023 307.944 144.793 308.175 144.511 308.175Z" fill="#252B37"/>
<path d="M236.056 282.726C235.81 282.726 235.594 282.549 235.552 282.298L227.326 233.564C227.278 233.285 227.467 233.021 227.745 232.974C228.018 232.928 228.288 233.115 228.335 233.394L236.562 282.128C236.609 282.408 236.421 282.671 236.143 282.719C236.114 282.723 236.085 282.726 236.056 282.726Z" fill="#252B37"/>
<path d="M118.802 180.356H118.767L114.545 230.507L131.995 224.624L139.593 253.716L107.548 264.293C104.439 265.324 101.221 265.379 98.2286 264.614C93.8078 263.487 89.8925 260.549 87.6317 256.271C85.944 253.073 85.3493 249.411 85.9238 245.844L92.879 181.544L91.3411 149.82C91.2461 148.249 92.2224 146.726 93.7459 146.343C95.795 145.837 97.6886 147.292 97.811 149.302C97.7088 147.512 97.4769 143.781 100.728 143.843C102.533 143.878 104.062 145.1 104.179 146.884L103.974 143.618C103.852 141.466 105.839 139.683 108.136 140.298C109.475 140.646 110.384 141.863 110.459 143.23V143.25L110.623 146.038C110.787 144.049 112.843 142.525 115.016 143.243C116.239 143.653 117.072 144.814 117.147 146.112L117.155 146.12L118.24 165.797" fill="white"/>
<path d="M102.349 265.647C100.926 265.647 99.5003 265.468 98.1021 265.111C93.4178 263.916 89.4362 260.783 87.1783 256.512C85.4531 253.244 84.8282 249.427 85.4171 245.765L92.3651 181.529L90.8301 149.847C90.7163 147.998 91.9173 146.275 93.6223 145.848C94.7368 145.573 95.8917 145.797 96.796 146.461C96.9789 146.595 97.1474 146.745 97.3 146.906C97.4008 145.914 97.6787 144.92 98.3527 144.22C98.9387 143.611 99.7451 143.316 100.739 143.332C101.836 143.352 102.805 143.745 103.509 144.388L103.463 143.65C103.394 142.441 103.912 141.264 104.848 140.502C105.797 139.729 107.043 139.476 108.267 139.803C109.792 140.199 110.879 141.565 110.97 143.201L111.009 143.882C111.236 143.619 111.5 143.384 111.796 143.188C112.789 142.531 114.018 142.374 115.176 142.756C116.551 143.217 117.539 144.519 117.653 146.01C117.66 146.038 117.663 146.064 117.664 146.091L118.752 165.769C118.768 166.051 118.552 166.293 118.268 166.309C118.012 166.317 117.744 166.108 117.728 165.825L116.645 146.216C116.639 146.192 116.636 146.166 116.635 146.141C116.572 145.034 115.854 144.065 114.852 143.728C113.985 143.443 113.101 143.554 112.362 144.042C111.66 144.507 111.199 145.269 111.133 146.078C111.11 146.346 110.881 146.55 110.616 146.549C110.346 146.546 110.126 146.334 110.11 146.067L109.946 143.279C109.881 142.068 109.101 141.078 108.006 140.793C107.101 140.551 106.186 140.734 105.495 141.297C104.812 141.853 104.435 142.708 104.486 143.588L104.69 146.848C104.69 146.848 104.69 146.85 104.69 146.851V146.853C104.709 147.135 104.494 147.378 104.212 147.396C103.93 147.413 103.686 147.2 103.668 146.918V146.916V146.915C103.571 145.462 102.333 144.386 100.72 144.356C100.006 144.333 99.4759 144.53 99.0899 144.93C98.1309 145.925 98.2547 148.083 98.321 149.242C98.321 149.246 98.321 149.249 98.321 149.253C98.321 149.259 98.321 149.266 98.3224 149.272H98.321C98.321 149.543 98.1122 149.783 97.84 149.799C97.5376 149.819 97.3159 149.616 97.2986 149.335C97.2986 149.335 97.2986 149.334 97.2986 149.332V149.331C97.2482 148.513 96.8435 147.769 96.1869 147.288C95.5202 146.797 94.6965 146.638 93.8671 146.843C92.6344 147.152 91.7675 148.421 91.8511 149.792L93.389 181.522C93.3904 181.55 93.389 181.576 93.3875 181.601L86.4323 245.902C85.8751 249.374 86.4626 252.962 88.084 256.034C90.2066 260.048 93.9506 262.996 98.3555 264.119C101.345 264.884 104.47 264.776 107.387 263.808L138.976 253.383L131.638 225.287L114.708 230.993C114.544 231.048 114.364 231.018 114.229 230.911C114.093 230.805 114.02 230.638 114.034 230.465L118.256 180.314C118.278 180.049 118.501 179.845 118.766 179.845C119.048 179.845 119.296 180.074 119.296 180.357C119.296 180.421 119.286 180.481 119.266 180.537L115.12 229.772L131.831 224.139C131.967 224.094 132.113 224.106 132.239 224.174C132.364 224.241 132.455 224.358 132.491 224.495L140.088 253.587C140.156 253.849 140.01 254.118 139.753 254.203L107.708 264.78C105.97 265.358 104.162 265.647 102.349 265.647Z" fill="#252B37"/>
<path d="M104.65 155.371C104.381 155.371 104.156 155.162 104.139 154.888L103.659 146.906C103.642 146.624 103.858 146.381 104.14 146.365C104.412 146.342 104.664 146.562 104.683 146.846L105.163 154.828C105.18 155.11 104.964 155.353 104.682 155.369C104.67 155.371 104.66 155.371 104.65 155.371Z" fill="#252B37"/>
<path d="M111.125 154.981C110.855 154.981 110.631 154.772 110.613 154.499L110.106 146.063C110.089 145.781 110.305 145.538 110.587 145.522C110.86 145.502 111.113 145.719 111.13 146.003L111.637 154.438C111.654 154.721 111.438 154.964 111.156 154.98C111.145 154.981 111.135 154.981 111.125 154.981Z" fill="#252B37"/>
<path d="M98.1699 155.759C97.9007 155.759 97.676 155.55 97.6587 155.277L97.1807 147.308C97.1634 147.025 97.3794 146.782 97.6616 146.766C97.9309 146.743 98.1858 146.964 98.2045 147.247L98.6826 155.216C98.6999 155.498 98.4839 155.742 98.2016 155.758C98.1901 155.759 98.18 155.759 98.1699 155.759Z" fill="#252B37"/>
<path d="M169.139 224.525C169.139 224.525 148.436 221.024 143.796 223.111L126.359 224.516L129.144 262.587L156.288 256.846C160.879 255.458 164.302 251.61 165.144 246.888L169.139 224.525Z" fill="#75E0A7"/>
<path d="M129.143 263.1C129.034 263.1 128.924 263.064 128.835 262.997C128.717 262.908 128.644 262.773 128.632 262.624L125.847 224.554C125.827 224.273 126.037 224.028 126.316 224.005L143.753 222.598C144.028 222.577 144.282 222.785 144.306 223.068C144.329 223.35 144.119 223.596 143.837 223.619L126.907 224.984L129.611 261.962L156.181 256.342C156.456 256.286 156.729 256.46 156.788 256.738C156.847 257.014 156.67 257.286 156.394 257.345L129.25 263.087C129.214 263.097 129.179 263.1 129.143 263.1Z" fill="#252B37"/>
<path d="M113.073 236.775C113.031 236.775 112.988 236.771 112.944 236.759C112.671 236.689 112.505 236.411 112.574 236.136L114.045 230.383C114.115 230.108 114.394 229.941 114.668 230.013C114.942 230.083 115.107 230.361 115.038 230.636L113.568 236.389C113.509 236.621 113.3 236.775 113.073 236.775Z" fill="#252B37"/>
<path d="M244.89 165.754L243.645 146.083L243.653 146.076C243.578 144.779 244.267 143.527 245.43 142.974C247.506 142.011 249.728 143.281 250.124 145.235L249.96 142.447V142.427C249.871 141.061 250.629 139.741 251.921 139.243C254.129 138.362 256.307 139.9 256.444 142.051L256.615 145.146C256.615 143.445 257.968 142.126 259.69 141.887C262.806 141.457 263.106 144.934 263.222 146.786C263.222 144.852 264.89 143.294 266.919 143.547C268.477 143.752 269.632 145.146 269.719 146.718L271.818 176.878L271.927 176.87L281.854 245.845C282.429 249.412 281.834 253.074 280.147 256.272C277.886 260.549 273.976 263.488 269.55 264.615C266.557 265.38 263.339 265.325 260.23 264.294L228.186 253.717L235.783 224.625L253.233 230.508L245.71 179.147" fill="white"/>
<path d="M265.429 265.647C263.616 265.647 261.807 265.357 260.066 264.78L228.022 254.203C227.766 254.118 227.619 253.849 227.686 253.587L235.285 224.494C235.321 224.358 235.413 224.241 235.537 224.173C235.663 224.106 235.809 224.094 235.945 224.139L252.603 229.755L245.201 179.222C245.161 178.941 245.354 178.682 245.635 178.64C245.911 178.6 246.175 178.793 246.216 179.072L253.739 230.433C253.765 230.61 253.697 230.787 253.56 230.901C253.423 231.015 253.236 231.049 253.068 230.993L236.139 225.286L228.801 253.382L260.389 263.808C263.308 264.777 266.43 264.883 269.422 264.119C273.825 262.997 277.568 260.049 279.693 256.033C281.315 252.96 281.902 249.372 281.349 245.927L271.464 177.249C271.375 177.164 271.315 177.046 271.307 176.914L269.21 146.754C269.132 145.381 268.119 144.223 266.853 144.056C266.042 143.955 265.263 144.19 264.666 144.718C264.075 145.24 263.737 145.994 263.737 146.788C263.737 147.064 263.518 147.292 263.24 147.3C262.978 147.307 262.73 147.096 262.713 146.821C262.648 145.79 262.513 143.647 261.446 142.774C261.017 142.424 260.468 142.301 259.761 142.397C258.236 142.609 257.129 143.766 257.129 145.149C257.129 145.427 256.908 145.653 256.63 145.662C256.373 145.682 256.121 145.456 256.105 145.178L255.933 142.082C255.879 141.203 255.399 140.395 254.655 139.925C253.904 139.451 252.977 139.376 252.113 139.722C251.053 140.132 250.397 141.206 250.474 142.397L250.639 145.208C250.654 145.477 250.46 145.712 250.192 145.746C249.926 145.781 249.678 145.604 249.623 145.34C249.462 144.547 248.918 143.846 248.166 143.466C247.374 143.065 246.48 143.057 245.646 143.442C244.699 143.895 244.102 144.943 244.166 146.05C244.167 146.078 244.166 146.105 244.164 146.132L245.403 165.725C245.421 166.007 245.207 166.251 244.923 166.269C244.665 166.29 244.398 166.074 244.38 165.79L243.136 146.119C243.135 146.088 243.135 146.056 243.138 146.026C243.084 144.538 243.909 143.134 245.21 142.515C246.321 142 247.566 142.014 248.627 142.551C248.945 142.712 249.233 142.911 249.487 143.142L249.448 142.482C249.341 140.825 250.26 139.34 251.734 138.77C252.902 138.303 254.167 138.408 255.199 139.061C256.22 139.706 256.877 140.813 256.953 142.023L256.995 142.771C257.624 142.043 258.543 141.533 259.617 141.383C260.606 141.246 261.439 141.448 262.091 141.982C262.841 142.596 263.237 143.572 263.453 144.531C263.607 144.322 263.786 144.128 263.983 143.954C264.805 143.228 265.868 142.904 266.98 143.044C268.728 143.274 270.125 144.842 270.23 146.694L272.305 176.531C272.371 176.604 272.417 176.698 272.433 176.802L282.36 245.776C282.948 249.429 282.323 253.247 280.598 256.514C278.338 260.787 274.357 263.922 269.674 265.114C268.277 265.468 266.851 265.647 265.429 265.647Z" fill="#252B37"/>
<path d="M257.095 153.804C256.826 153.804 256.599 153.594 256.584 153.322L256.12 145.338C256.104 145.056 256.32 144.814 256.602 144.797C256.9 144.781 257.128 144.995 257.144 145.279L257.607 153.262C257.623 153.545 257.407 153.787 257.125 153.804C257.115 153.804 257.105 153.804 257.095 153.804Z" fill="#252B37"/>
<path d="M250.62 154.181C250.351 154.181 250.125 153.971 250.109 153.699L249.618 145.262C249.602 144.98 249.818 144.738 250.1 144.72C250.391 144.697 250.625 144.919 250.642 145.203L251.133 153.64C251.149 153.922 250.933 154.164 250.65 154.181C250.64 154.181 250.63 154.181 250.62 154.181Z" fill="#252B37"/>
<path d="M263.575 153.427C263.306 153.427 263.08 153.216 263.064 152.944L262.6 144.974C262.585 144.692 262.801 144.45 263.083 144.432C263.387 144.409 263.608 144.631 263.624 144.915L264.088 152.885C264.104 153.167 263.888 153.409 263.606 153.427C263.595 153.427 263.585 153.427 263.575 153.427Z" fill="#252B37"/>
<path d="M198.639 224.525C198.639 224.525 219.342 221.024 223.981 223.111L241.418 224.516L238.633 262.587L211.489 256.846C206.899 255.458 203.476 251.61 202.633 246.888L198.639 224.525Z" fill="#75E0A7"/>
<path d="M238.633 263.099C238.597 263.099 238.562 263.095 238.526 263.088L211.382 257.347C211.106 257.288 210.929 257.015 210.988 256.739C211.046 256.461 211.316 256.288 211.596 256.343L238.165 261.963L240.871 224.985L223.941 223.62C223.658 223.597 223.448 223.351 223.471 223.069C223.494 222.787 223.751 222.576 224.024 222.599L241.461 224.006C241.742 224.029 241.952 224.274 241.931 224.555L239.144 262.626C239.134 262.773 239.059 262.909 238.941 262.999C238.852 263.065 238.744 263.099 238.633 263.099Z" fill="#252B37"/>
<path d="M254.705 236.775C254.478 236.775 254.269 236.621 254.21 236.389L252.741 230.636C252.67 230.363 252.836 230.083 253.111 230.013C253.387 229.941 253.664 230.108 253.734 230.383L255.203 236.136C255.274 236.409 255.108 236.689 254.833 236.759C254.79 236.771 254.748 236.775 254.705 236.775Z" fill="#252B37"/>
<path d="M283.397 165.419H90.0035C89.1007 165.419 88.3691 164.687 88.3691 163.784V93.8825C88.3691 92.9796 89.1007 92.248 90.0035 92.248H283.397C284.3 92.248 285.031 92.9796 285.031 93.8825V163.784C285.031 164.687 284.3 165.419 283.397 165.419Z" fill="#F4781B"/>
<path d="M245.708 179.146C245.183 177.787 243.925 175.511 241.083 174.125L236.231 171.563C235.261 171.043 234.564 170.211 234.203 169.233C233.889 168.379 233.847 167.423 234.113 166.507C234.838 164.055 237.523 162.749 239.908 163.726L253.85 170.299" fill="white"/>
<path d="M245.708 179.658C245.502 179.658 245.308 179.535 245.23 179.33C244.765 178.128 243.578 175.912 240.858 174.584L235.992 172.015C234.942 171.453 234.136 170.529 233.721 169.41C233.366 168.444 233.33 167.362 233.621 166.363C234.008 165.048 234.938 163.957 236.171 163.365C237.402 162.773 238.835 162.733 240.099 163.251L254.066 169.835C254.322 169.956 254.431 170.261 254.312 170.517C254.191 170.772 253.886 170.885 253.629 170.762L239.687 164.19C238.698 163.785 237.598 163.817 236.614 164.289C235.642 164.756 234.909 165.617 234.604 166.652C234.375 167.442 234.402 168.295 234.682 169.057C235.009 169.94 235.645 170.67 236.472 171.112L241.32 173.674C244.34 175.147 245.665 177.621 246.183 178.964C246.285 179.228 246.154 179.525 245.891 179.627C245.832 179.647 245.77 179.658 245.708 179.658Z" fill="#252B37"/>
<path d="M111.82 168.728L122.949 163.192C125.196 161.942 128.019 162.919 129.03 165.269C129.398 166.15 129.473 167.106 129.262 167.988C129.015 168.998 128.421 169.914 127.519 170.544L123.003 173.66C119.013 176.229 118.801 180.356 118.801 180.356" fill="white"/>
<path d="M118.801 180.868C118.793 180.868 118.782 180.868 118.774 180.868C118.492 180.854 118.273 180.613 118.289 180.329C118.297 180.151 118.562 175.909 122.725 173.229L127.228 170.123C127.993 169.589 128.54 168.788 128.763 167.868C128.95 167.087 128.877 166.235 128.556 165.467C128.131 164.479 127.299 163.71 126.278 163.363C125.244 163.012 124.149 163.11 123.196 163.641L112.048 169.188C111.794 169.315 111.486 169.211 111.361 168.958C111.234 168.704 111.338 168.398 111.591 168.271L122.719 162.736C123.892 162.083 125.317 161.955 126.609 162.394C127.905 162.836 128.958 163.81 129.499 165.068C129.906 166.04 129.997 167.119 129.76 168.11C129.476 169.275 128.785 170.288 127.811 170.965L123.293 174.083C119.553 176.49 119.314 180.344 119.311 180.383C119.299 180.655 119.073 180.868 118.801 180.868Z" fill="#252B37"/>
<path d="M124.653 118.281C125.059 117.941 125.486 117.771 125.939 117.771C126.781 117.771 127.203 118.356 127.203 119.525C127.203 120.932 127.019 121.899 126.651 122.424C126.284 122.95 125.79 123.213 125.17 123.213C124.465 123.213 124.01 122.842 123.803 122.099C123.711 121.752 123.603 121.541 123.482 121.471C123.36 121.4 123.05 121.364 122.552 121.364C121.387 121.364 119.875 122.451 118.016 124.624C116.155 126.799 115.225 128.695 115.225 130.315C115.225 131.019 115.45 131.626 115.897 132.135C116.345 132.645 116.926 132.9 117.637 132.9C118.281 132.9 118.875 132.789 119.423 132.567C119.97 132.346 120.818 131.868 121.967 131.133C122.625 130.723 123.105 130.517 123.403 130.517C123.816 130.517 124.153 130.651 124.414 130.92C124.674 131.188 124.804 131.529 124.804 131.94C124.804 132.336 124.667 132.691 124.391 133.007C124.116 133.323 123.518 133.771 122.599 134.352C121.681 134.933 120.763 135.375 119.849 135.679C118.934 135.983 118.033 136.136 117.145 136.136C115.582 136.136 114.329 135.609 113.383 134.553C112.437 133.498 111.965 132.255 111.965 130.825C111.965 128.272 113.248 125.52 115.813 122.568C118.377 119.616 120.789 118.14 123.049 118.14C123.734 118.139 124.27 118.186 124.653 118.281Z" fill="white"/>
<path d="M127.219 131.666C127.219 129.691 127.913 127.845 129.304 126.129C130.693 124.414 132.479 123.558 134.662 123.558C135.918 123.558 136.903 123.998 137.62 124.88C138.336 125.761 138.694 126.924 138.694 128.372C138.694 130.451 138.037 132.332 136.724 134.015C135.411 135.698 133.774 136.541 131.815 136.541C130.452 136.541 129.346 136.08 128.496 135.16C127.644 134.237 127.219 133.073 127.219 131.666ZM130.436 131.192C130.436 131.865 130.594 132.402 130.912 132.805C131.231 133.209 131.687 133.41 132.285 133.41C133.28 133.41 134.072 132.978 134.662 132.113C135.251 131.247 135.546 130.136 135.546 128.776C135.546 127.385 135.029 126.69 133.995 126.69C132.985 126.69 132.139 127.194 131.457 128.202C130.776 129.207 130.436 130.205 130.436 131.192Z" fill="white"/>
<path d="M144.864 125.348C146.235 123.956 147.44 123.261 148.481 123.261C149.677 123.261 150.461 123.73 150.836 124.672C151.884 123.811 153.084 123.381 154.43 123.381C156.283 123.381 157.209 124.538 157.209 126.854C157.209 127.375 157.186 128.055 157.14 128.893C157.133 129.035 157.11 130.229 157.071 132.473C157.048 133.682 157.018 134.574 156.98 135.145C156.941 135.718 156.731 136.148 156.348 136.431C155.965 136.716 155.563 136.857 155.143 136.857C154.652 136.857 154.305 136.724 154.097 136.454C153.89 136.185 153.788 135.668 153.788 134.902L154.051 128.606C154.051 127.176 153.899 126.461 153.592 126.461C153.438 126.461 152.989 126.661 152.243 127.06C151.497 127.459 151.004 127.754 150.768 127.942C150.646 128.622 150.558 129.918 150.505 131.83C150.397 134.248 150.276 135.652 150.137 136.04C149.999 136.427 149.767 136.737 149.443 136.97C149.118 137.203 148.768 137.32 148.392 137.32C147.979 137.32 147.643 137.192 147.387 136.934C147.131 136.677 147.002 136.371 147.002 136.015L147.164 134.687C147.233 134.087 147.298 133.111 147.36 131.76C147.459 129.863 147.566 128.536 147.681 127.777C147.757 127.287 147.784 126.884 147.761 126.567C146.743 127.104 145.637 128.065 144.442 129.449L143.5 134.938C143.454 135.348 143.256 135.68 142.903 135.929C142.55 136.178 142.13 136.302 141.64 136.302C140.821 136.302 140.41 135.808 140.41 134.82C140.41 134.473 140.452 134.041 140.537 133.528L141.192 129.142C141.361 128.036 141.479 127.119 141.548 126.392C141.647 125.254 141.908 124.351 142.33 123.683C142.75 123.015 143.21 122.681 143.708 122.681C144.114 122.681 144.457 122.829 144.736 123.126C145.015 123.422 145.155 123.756 145.155 124.128C145.152 124.229 145.056 124.636 144.864 125.348Z" fill="white"/>
<path d="M161.362 136.207C160.942 136.207 160.605 136.082 160.351 135.834C160.098 135.586 159.973 135.267 159.973 134.879L160.294 132.46C160.501 130.831 160.776 129.232 161.12 127.659C161.388 126.497 161.561 125.609 161.637 124.992C161.699 124.557 161.907 124.184 162.264 123.872C162.619 123.559 163.024 123.404 163.475 123.404C163.872 123.404 164.196 123.526 164.445 123.771C164.694 124.016 164.818 124.336 164.818 124.732C164.818 125.048 164.65 125.961 164.313 127.471C163.976 128.98 163.721 130.438 163.55 131.845C163.377 133.252 163.247 134.192 163.158 134.668C163.07 135.141 162.856 135.517 162.516 135.794C162.176 136.069 161.79 136.207 161.362 136.207ZM162.556 120.096C162.556 119.551 162.775 119.081 163.211 118.685C163.648 118.291 164.126 118.092 164.647 118.092C165.085 118.092 165.455 118.236 165.761 118.524C166.068 118.812 166.221 119.162 166.221 119.574C166.221 120.103 166.003 120.571 165.571 120.979C165.139 121.387 164.651 121.59 164.107 121.59C163.662 121.59 163.293 121.444 162.998 121.15C162.704 120.858 162.556 120.507 162.556 120.096Z" fill="white"/>
<path d="M171.37 124.886C172.663 123.724 173.928 123.143 175.16 123.143C177.09 123.143 178.055 124.289 178.055 126.582C178.055 127.205 177.99 127.937 177.86 128.775L177.722 129.629C177.531 130.814 177.435 131.865 177.435 132.783C177.435 133.857 177.408 134.614 177.355 135.053C177.302 135.493 177.104 135.876 176.763 136.204C176.422 136.532 176.014 136.696 175.54 136.696C174.629 136.696 174.174 136.241 174.174 135.333C174.174 133.334 174.231 131.865 174.347 130.928C174.462 129.992 174.653 128.951 174.92 127.804C175.028 127.362 175.081 127.05 175.081 126.868C175.081 126.472 174.951 126.275 174.691 126.275C173.964 126.275 173.19 126.72 172.371 127.609C171.552 128.497 170.934 129.407 170.516 130.336C170.099 131.265 169.844 132.444 169.752 133.874C169.721 134.561 169.659 135.038 169.569 135.303C169.477 135.568 169.276 135.821 168.965 136.061C168.656 136.303 168.283 136.423 167.845 136.423C167.446 136.423 167.119 136.305 166.863 136.067C166.607 135.83 166.479 135.526 166.479 135.154L166.571 133.874C166.633 133.004 166.877 131.622 167.307 129.725C167.72 127.97 167.957 126.758 168.018 126.085C168.08 125.342 168.142 124.773 168.208 124.377C168.273 123.983 168.48 123.636 168.827 123.34C169.176 123.044 169.583 122.896 170.05 122.896C171.045 122.896 171.485 123.512 171.37 124.744V124.886Z" fill="white"/>
<path d="M186.765 135.212C185.884 136.034 184.852 136.444 183.664 136.444C182.271 136.444 181.185 136.034 180.408 135.212C179.63 134.389 179.243 133.35 179.243 132.094C179.243 129.967 179.997 128.037 181.505 126.302C183.013 124.567 185.081 123.7 187.706 123.7C189.153 123.7 190.141 124.063 190.669 124.79C191.48 124.893 191.886 125.348 191.886 126.154C191.886 126.605 191.676 127.479 191.255 128.775C190.681 130.546 190.187 132.506 189.774 134.654C189.268 137.563 188.403 139.599 187.179 140.766C185.953 141.931 184.231 142.514 182.011 142.514C179.231 142.514 177.842 141.98 177.842 140.913C177.842 140.486 177.989 140.1 178.284 139.756C178.578 139.412 178.982 139.241 179.495 139.241C179.855 139.241 180.342 139.304 180.954 139.431C181.62 139.581 182.186 139.655 182.654 139.655C183.765 139.655 184.641 139.304 185.284 138.6C185.926 137.899 186.42 136.768 186.765 135.212ZM188.603 126.877C188.097 126.553 187.619 126.39 187.167 126.39C185.683 126.39 184.522 126.94 183.688 128.039C182.853 129.138 182.437 130.363 182.437 131.714C182.437 133.01 183.003 133.658 184.136 133.658C184.711 133.658 185.333 133.345 186.002 132.722C186.672 132.098 187.131 131.481 187.38 130.873C187.628 130.264 188.036 128.932 188.603 126.877Z" fill="white"/>
<path d="M203.496 133.089C203.496 132.448 203.688 131.925 204.069 131.518C204.452 131.11 204.916 130.907 205.459 130.907C206.124 130.907 206.581 131.272 206.825 131.997C207.1 132.969 208.009 133.456 209.548 133.456C210.795 133.456 212.145 133.158 213.596 132.56C215.046 131.964 215.772 131.148 215.772 130.112C215.772 129.41 215.501 128.924 214.961 128.659C214.421 128.394 213.259 128.246 211.475 128.214C210.09 128.183 208.889 127.892 207.875 127.343C206.861 126.793 206.354 126.057 206.354 125.131C206.354 123.582 207.262 122.083 209.076 120.633C210.89 119.183 212.836 118.457 214.911 118.457C215.699 118.457 216.652 118.653 217.771 119.045C218.888 119.436 219.447 119.888 219.447 120.402C219.447 120.767 219.267 121.147 218.907 121.546C218.547 121.945 218.111 122.145 217.597 122.145C217.206 122.145 216.674 122.063 216.001 121.896C215.373 121.737 214.845 121.658 214.417 121.658C213.413 121.658 212.405 121.917 211.39 122.434C210.376 122.953 209.87 123.519 209.87 124.135C209.87 124.656 210.366 124.996 211.363 125.154L214.027 125.286C215.075 125.333 215.998 125.539 216.794 125.902C217.591 126.266 218.187 126.769 218.586 127.414C218.983 128.058 219.183 128.822 219.183 129.708C219.183 131.912 218.161 133.606 216.116 134.788C214.071 135.969 211.687 136.561 208.961 136.561C207.216 136.561 205.868 136.219 204.917 135.535C203.967 134.851 203.496 134.038 203.496 133.089Z" fill="white"/>
<path d="M220.693 131.666C220.693 129.691 221.387 127.845 222.778 126.129C224.168 124.414 225.954 123.558 228.137 123.558C229.392 123.558 230.377 123.998 231.094 124.88C231.81 125.761 232.169 126.924 232.169 128.372C232.169 130.451 231.512 132.332 230.199 134.015C228.886 135.698 227.248 136.541 225.29 136.541C223.926 136.541 222.82 136.08 221.971 135.16C221.12 134.237 220.693 133.073 220.693 131.666ZM223.91 131.192C223.91 131.865 224.069 132.402 224.387 132.805C224.705 133.209 225.162 133.41 225.759 133.41C226.754 133.41 227.546 132.978 228.137 132.113C228.726 131.247 229.021 130.136 229.021 128.776C229.021 127.385 228.504 126.69 227.47 126.69C226.459 126.69 225.614 127.194 224.931 128.202C224.25 129.207 223.91 130.205 223.91 131.192Z" fill="white"/>
<path d="M233.768 131.666C233.768 129.691 234.462 127.845 235.853 126.129C237.242 124.414 239.028 123.558 241.211 123.558C242.467 123.558 243.452 123.998 244.169 124.88C244.884 125.761 245.243 126.924 245.243 128.372C245.243 130.451 244.586 132.332 243.273 134.015C241.96 135.698 240.322 136.541 238.364 136.541C237 136.541 235.894 136.08 235.045 135.16C234.192 134.237 233.768 133.073 233.768 131.666ZM236.983 131.192C236.983 131.865 237.141 132.402 237.46 132.805C237.778 133.209 238.234 133.41 238.832 133.41C239.827 133.41 240.619 132.978 241.209 132.113C241.798 131.247 242.094 130.136 242.094 128.776C242.094 127.385 241.577 126.69 240.543 126.69C239.532 126.69 238.687 127.194 238.004 128.202C237.324 129.207 236.983 130.205 236.983 131.192Z" fill="white"/>
<path d="M251.644 124.886C252.937 123.724 254.201 123.143 255.434 123.143C257.363 123.143 258.328 124.289 258.328 126.582C258.328 127.205 258.263 127.937 258.134 128.775L257.995 129.629C257.804 130.814 257.709 131.865 257.709 132.783C257.709 133.857 257.682 134.614 257.628 135.053C257.575 135.493 257.378 135.876 257.036 136.204C256.695 136.532 256.288 136.696 255.814 136.696C254.902 136.696 254.447 136.241 254.447 135.333C254.447 133.334 254.505 131.865 254.62 130.928C254.735 129.992 254.927 128.951 255.193 127.804C255.301 127.362 255.355 127.05 255.355 126.868C255.355 126.472 255.225 126.275 254.964 126.275C254.237 126.275 253.464 126.72 252.644 127.609C251.825 128.497 251.207 129.407 250.79 130.336C250.372 131.265 250.117 132.444 250.025 133.874C249.995 134.561 249.933 135.038 249.842 135.303C249.75 135.568 249.55 135.821 249.239 136.061C248.929 136.303 248.556 136.423 248.119 136.423C247.72 136.423 247.393 136.305 247.136 136.067C246.88 135.83 246.752 135.526 246.752 135.154L246.844 133.874C246.906 133.004 247.151 131.622 247.58 129.725C247.993 127.97 248.231 126.758 248.291 126.085C248.353 125.342 248.415 124.773 248.481 124.377C248.546 123.983 248.754 123.636 249.101 123.34C249.449 123.044 249.857 122.896 250.323 122.896C251.318 122.896 251.759 123.512 251.644 124.744V124.886Z" fill="white"/>
<path d="M198.135 224.755C198.165 231.145 172.003 231.267 171.973 224.878L174.795 197.438L197.268 202.118L198.135 224.755Z" fill="white"/>
<path d="M184.883 230.122C181.478 230.122 178.302 229.704 175.922 228.941C172.246 227.763 171.467 226.083 171.461 224.88L174.285 197.386C174.299 197.242 174.376 197.111 174.492 197.025C174.609 196.94 174.757 196.908 174.9 196.937L197.372 201.617C197.603 201.665 197.771 201.863 197.78 202.1L198.648 224.736C198.648 224.742 198.648 224.748 198.648 224.754C198.654 225.956 197.891 227.642 194.226 228.856C191.807 229.657 188.56 230.106 185.08 230.122C185.014 230.122 184.948 230.122 184.883 230.122ZM175.247 198.056L172.483 224.931C172.498 227.315 177.882 229.127 185.075 229.097C188.45 229.081 191.585 228.65 193.905 227.883C195.294 227.423 197.624 226.407 197.624 224.767L196.772 202.54L175.247 198.056Z" fill="#252B37"/>
<path d="M174.733 206.098C164.592 198.263 160.584 185.365 160.584 185.365L180.259 163.976C180.986 164.19 198.179 164.183 207.567 181.594C215.259 195.862 207.211 208.342 188.268 210.866" fill="white"/>
<path d="M188.267 211.379C188.013 211.379 187.793 211.191 187.76 210.934C187.723 210.653 187.92 210.395 188.201 210.358C198.076 209.041 205.219 204.978 208.313 198.915C210.862 193.921 210.449 188.015 207.118 181.837C201.673 171.738 192.312 165.6 180.757 164.548C180.633 164.537 180.535 164.528 180.455 164.52L161.166 185.489C161.818 187.397 165.97 198.679 175.048 205.692C175.271 205.865 175.313 206.187 175.14 206.411C174.967 206.635 174.646 206.677 174.421 206.503C164.269 198.659 160.136 185.646 160.098 185.516C160.043 185.342 160.086 185.152 160.21 185.017L179.885 163.627C180.017 163.483 180.22 163.428 180.407 163.483C180.462 163.493 180.619 163.506 180.852 163.526C192.76 164.609 202.408 170.938 208.022 181.349C211.52 187.837 211.938 194.073 209.229 199.381C205.977 205.751 198.559 210.011 188.339 211.373C188.313 211.377 188.29 211.379 188.267 211.379Z" fill="#252B37"/>
<path d="M201.302 164.541C201.302 176.46 174.111 181.886 174.111 181.886C172.368 184.189 175.908 190.556 174.576 192.988C173.236 195.421 172.532 194.191 172.532 194.191L167.026 200.832C167.026 200.832 151.906 194.178 152.862 185.665C153.825 177.151 160.713 176.195 160.713 176.195C160.713 176.195 154.276 170.559 157.18 166.432C159.291 163.44 164.532 162.962 167.252 162.934C165.92 162.628 167.728 155.704 172.878 153.671C186.768 148.183 201.302 145.772 201.302 164.541Z" fill="#252B37"/>
<path d="M188.518 184.319C187.019 184.648 185.854 185.947 185.561 187.615L188.518 184.319Z" fill="white"/>
<path d="M185.562 188.127C185.533 188.127 185.503 188.124 185.473 188.119C185.193 188.07 185.008 187.805 185.057 187.526C185.386 185.647 186.703 184.192 188.409 183.818C188.683 183.756 188.959 183.932 189.02 184.208C189.08 184.485 188.906 184.758 188.628 184.819C187.329 185.104 186.322 186.236 186.065 187.703C186.021 187.952 185.805 188.127 185.562 188.127Z" fill="#252B37"/>
<path d="M198.066 181.627C198.812 182.545 199.923 182.885 200.547 182.38C201.163 181.877 201.057 180.718 200.302 179.798C199.548 178.876 198.434 178.536 197.818 179.039C197.199 179.552 197.311 180.706 198.066 181.627Z" fill="#252B37"/>
<path d="M188.766 189.488C189.521 190.408 190.629 190.742 191.253 190.237C191.871 189.734 191.757 188.579 191.008 187.655C190.254 186.735 189.141 186.395 188.521 186.906C187.905 187.409 188.017 188.565 188.766 189.488Z" fill="#252B37"/>
<path d="M197.815 176.46C196.316 176.788 195.151 178.087 194.857 179.756L197.815 176.46Z" fill="white"/>
<path d="M194.857 180.269C194.828 180.269 194.798 180.266 194.768 180.261C194.488 180.212 194.303 179.947 194.352 179.668C194.681 177.789 195.997 176.335 197.704 175.96C197.976 175.897 198.254 176.074 198.314 176.35C198.375 176.627 198.201 176.9 197.923 176.961C196.624 177.246 195.617 178.378 195.36 179.845C195.316 180.093 195.1 180.269 194.857 180.269Z" fill="#252B37"/>
<path d="M172.928 194.206C172.928 194.206 163.938 191.537 161.299 194.461C158.659 197.386 166.127 208.226 170.59 207.204C175.052 206.181 177.34 202.954 177.34 202.954" fill="white"/>
<path d="M169.976 207.786C167.241 207.786 163.957 204.617 161.948 201.197C160.118 198.079 159.733 195.433 160.918 194.119C163.741 190.99 172.693 193.604 173.075 193.716C173.345 193.797 173.501 194.082 173.42 194.353C173.34 194.623 173.056 194.777 172.782 194.698C170.369 193.982 163.667 192.604 161.68 194.805C160.835 195.741 161.287 198.046 162.832 200.677C164.81 204.048 168.225 207.222 170.475 206.705C174.68 205.742 176.902 202.689 176.924 202.657C177.088 202.427 177.408 202.373 177.638 202.538C177.868 202.702 177.923 203.02 177.759 203.252C177.661 203.39 175.304 206.65 170.704 207.704C170.467 207.76 170.223 207.786 169.976 207.786Z" fill="#252B37"/>
<path d="M168.124 202.033C168.017 202.033 167.909 202 167.817 201.931C167.057 201.361 166.406 200.622 165.935 199.796C165.533 199.093 165.437 198.497 165.641 197.973C165.814 197.532 166.214 197.175 166.712 197.015C167.077 196.898 167.489 196.88 167.968 196.956C168.576 197.054 169.171 197.283 169.688 197.615C169.925 197.77 169.993 198.086 169.84 198.324C169.686 198.562 169.371 198.631 169.132 198.477C168.733 198.219 168.275 198.043 167.807 197.968C167.49 197.918 167.234 197.925 167.026 197.991C166.822 198.056 166.658 198.193 166.599 198.346C166.517 198.559 166.593 198.877 166.828 199.289C167.229 199.994 167.785 200.625 168.435 201.112C168.661 201.282 168.707 201.603 168.537 201.829C168.433 201.963 168.281 202.033 168.124 202.033Z" fill="#252B37"/>
<path d="M196.146 185.784C197.304 187.056 198.461 188.327 199.618 189.597C200.317 190.363 201.032 191.165 201.248 192.149C201.464 193.134 201.025 194.358 199.935 194.888" fill="white"/>
<path d="M199.935 195.402C199.745 195.402 199.562 195.296 199.473 195.114C199.349 194.859 199.455 194.553 199.709 194.429C200.596 193.997 200.906 192.989 200.747 192.26C200.557 191.392 199.856 190.622 199.238 189.943L195.766 186.13C195.576 185.921 195.591 185.597 195.801 185.406C196.01 185.216 196.334 185.23 196.525 185.44L199.997 189.254C200.701 190.027 201.499 190.904 201.748 192.041C201.997 193.18 201.531 194.682 200.158 195.35C200.086 195.385 200.01 195.402 199.935 195.402Z" fill="#252B37"/>
<path d="M194.506 201.64C194.176 201.64 193.847 201.607 193.524 201.54C192.378 201.301 191.316 200.627 190.611 199.693C190.441 199.467 190.486 199.146 190.712 198.976C190.939 198.806 191.26 198.852 191.43 199.076C191.986 199.817 192.826 200.348 193.733 200.538C194.639 200.727 195.622 200.574 196.428 200.119C196.675 199.979 196.987 200.067 197.127 200.313C197.265 200.56 197.179 200.872 196.932 201.012C196.201 201.424 195.353 201.64 194.506 201.64Z" fill="#252B37"/>
<path d="M48.508 235.27C48.4476 235.27 48.3856 235.26 48.3266 235.237C44.9872 233.967 42.1951 231.388 40.6672 228.158C39.3626 225.403 39.0069 222.235 39.6362 219.26C38.7477 218.555 37.9816 217.541 37.3509 216.233C35.3464 212.085 35.5927 206.856 37.9773 202.912C38.1228 202.67 38.4367 202.591 38.6815 202.739C38.9234 202.886 39.0012 203.2 38.8543 203.443C36.6439 207.098 36.4164 211.943 38.274 215.788C38.7492 216.772 39.3007 217.561 39.9213 218.15C39.9616 218.015 40.0048 217.881 40.0495 217.747C40.2871 217.037 40.696 216.004 41.478 215.238C42.3016 214.43 43.4191 214.079 44.394 214.324C45.2248 214.531 45.8786 215.171 46.1868 216.078C46.5396 217.112 46.3711 218.242 45.7476 219.03C44.6776 220.386 42.532 220.785 40.7551 219.956C40.6917 219.925 40.6269 219.894 40.5636 219.862C40.0898 222.504 40.4426 225.285 41.5946 227.719C43.0116 230.711 45.5978 233.101 48.6924 234.278C48.9559 234.379 49.0898 234.674 48.989 234.939C48.9098 235.145 48.7154 235.27 48.508 235.27ZM40.794 218.821C40.9221 218.897 41.0532 218.966 41.1856 219.03C42.3549 219.577 44.08 219.488 44.9412 218.398C45.3444 217.888 45.4509 217.109 45.2148 216.412C45.0204 215.84 44.6301 215.443 44.1434 215.32C43.5199 215.166 42.7552 215.421 42.1936 215.973C41.5687 216.585 41.2245 217.464 41.0186 218.074C40.9365 218.32 40.8616 218.569 40.794 218.821Z" fill="#252B37"/>
<path d="M109.884 84.7963C108.144 84.7963 106.494 84.5861 104.94 84.1642C101.261 83.1662 98.1752 80.8939 96.4529 77.9707C96.4198 77.9707 96.3867 77.9707 96.3536 77.9707C92.3878 77.9707 88.3933 75.4536 86.5097 71.7125C84.6809 68.0794 84.7745 63.408 86.756 59.5186C86.8841 59.2666 87.1923 59.1658 87.4457 59.2939C87.6977 59.4221 87.7985 59.7317 87.6689 59.9837C85.8344 63.5866 85.7408 67.9051 87.4256 71.2517C89.0686 74.5162 92.4699 76.7582 95.9115 76.9339C95.8971 76.9037 95.8841 76.8734 95.8697 76.8432C94.1403 72.9552 94.9856 68.2147 97.8814 65.5694C99.3589 64.2202 101.144 63.6715 102.654 64.1035C105.04 64.7846 106.105 67.6891 105.757 70.104C105.189 74.0338 101.684 77.3213 97.6049 77.8858C99.235 80.3712 101.972 82.2979 105.208 83.1763C108.488 84.0662 112.253 83.9582 116.397 82.8581C116.672 82.7846 116.951 82.9488 117.023 83.221C117.097 83.4946 116.933 83.7754 116.659 83.8474C114.282 84.4795 112.016 84.7963 109.884 84.7963ZM101.597 64.9834C100.61 64.9834 99.5288 65.4557 98.5741 66.3269C95.995 68.6827 95.252 72.9307 96.8072 76.427C96.8806 76.5926 96.9584 76.7554 97.0419 76.9181C100.865 76.5955 104.22 73.5845 104.744 69.9571C105.03 67.9786 104.222 65.617 102.374 65.0899C102.125 65.0179 101.863 64.9834 101.597 64.9834Z" fill="#252B37"/>
<path d="M169.291 79.6201C169.018 79.6201 168.792 79.407 168.779 79.132C168.563 74.668 169.289 70.79 170.934 67.6062C172.682 64.2193 175.553 61.6792 178.773 60.6107C179.572 56.6939 182.894 53.2696 186.981 52.2068C190.917 51.1816 195.465 52.2572 198.851 55.0105C199.07 55.1891 199.103 55.5116 198.924 55.732C198.744 55.9523 198.423 55.984 198.203 55.8068C195.068 53.2552 190.869 52.2558 187.239 53.2004C183.702 54.1206 180.795 56.9747 179.899 60.3025C179.932 60.2953 179.964 60.2881 179.997 60.2809C184.163 59.4068 188.62 61.2299 190.595 64.6182C191.605 66.3448 191.765 68.2038 191.026 69.5905C189.857 71.7808 186.792 72.2113 184.507 71.3632C180.783 69.9822 178.306 65.8638 178.613 61.7569C175.841 62.8283 173.382 65.0992 171.842 68.0785C170.283 71.0996 169.596 74.8019 169.802 79.0844C169.816 79.3667 169.597 79.6072 169.315 79.6216C169.306 79.6201 169.299 79.6201 169.291 79.6201ZM179.679 61.4099C179.191 65.2144 181.428 69.1283 184.864 70.4027C186.739 71.0982 189.217 70.803 190.122 69.1081C190.692 68.0382 190.539 66.5521 189.711 65.1337C187.95 62.1155 183.951 60.4984 180.209 61.2832C180.03 61.3206 179.854 61.3624 179.679 61.4099Z" fill="#252B37"/>
<path d="M311.857 201.459C311.729 201.459 311.599 201.456 311.469 201.452C311.187 201.44 310.965 201.203 310.977 200.92C310.987 200.638 311.219 200.409 311.508 200.428C315.422 200.586 319.352 198.089 320.899 194.514C321.328 193.52 321.935 191.585 321.174 189.788C321.081 189.569 320.968 189.363 320.837 189.171C320.385 189.614 319.892 190.014 319.365 190.361C318.289 191.071 316.682 191.533 315.687 190.503C315.1 189.893 314.984 188.866 315.414 188.063C315.774 187.389 316.463 186.885 317.307 186.683C318.518 186.394 319.837 186.793 320.84 187.651C322.029 186.189 322.794 184.366 322.945 182.5C323.169 179.716 322.032 176.812 319.978 174.92C319.77 174.728 319.757 174.404 319.948 174.195C320.141 173.988 320.465 173.974 320.672 174.165C322.953 176.266 324.215 179.492 323.967 182.582C323.796 184.699 322.916 186.762 321.547 188.402C321.773 188.703 321.966 189.033 322.117 189.389C322.792 190.982 322.693 192.946 321.839 194.921C320.156 198.814 316.09 201.459 311.857 201.459ZM318.108 187.612C317.918 187.612 317.731 187.634 317.548 187.677C316.998 187.809 316.537 188.132 316.319 188.542C316.098 188.958 316.144 189.495 316.427 189.789C316.946 190.326 318.021 190.017 318.802 189.503C319.284 189.184 319.737 188.816 320.15 188.408C319.551 187.909 318.819 187.612 318.108 187.612Z" fill="#252B37"/>
<path d="M239.397 79.6206C239.138 79.6206 238.915 79.4248 238.887 79.1598C238.859 78.8776 239.063 78.627 239.345 78.5982C242.149 78.3117 244.815 76.2942 246.476 73.2025C248 70.3672 248.551 67.1128 249.086 63.9664C249.126 63.723 249.17 63.4667 249.206 63.2017C248.423 63.3789 247.667 63.3357 246.999 63.0577C246.152 62.7064 245.498 61.8136 245.373 60.8387C245.268 60.0294 245.543 59.3123 246.126 58.8673C246.633 58.4814 247.286 58.3633 247.962 58.5333C248.808 58.7449 249.585 59.3901 249.945 60.1763C250.164 60.6544 250.271 61.1526 250.307 61.6509C250.454 61.5645 250.6 61.468 250.746 61.3643C252.498 60.1086 253.696 58.1675 254.038 56.0377C254.082 55.7584 254.344 55.5683 254.624 55.6129C254.903 55.6576 255.093 55.9197 255.049 56.2005C254.666 58.5981 253.316 60.784 251.343 62.1981C250.994 62.4486 250.639 62.6589 250.285 62.8259C250.24 63.2853 250.167 63.7288 250.096 64.1377C249.549 67.3662 248.983 70.7041 247.379 73.6878C245.556 77.0805 242.591 79.2966 239.449 79.6177C239.432 79.6206 239.414 79.6206 239.397 79.6206ZM247.365 59.4851C247.165 59.4851 246.946 59.5341 246.746 59.6853C246.358 59.9805 246.355 60.4528 246.388 60.7091C246.468 61.3225 246.879 61.9 247.392 62.1131C247.935 62.3392 248.597 62.3334 249.294 62.1131C249.296 61.5875 249.225 61.0677 249.014 60.6054C248.782 60.0985 248.259 59.6665 247.712 59.5297C247.611 59.5053 247.491 59.4851 247.365 59.4851Z" fill="#252B37"/>
<path d="M60.7272 277.772L57.5002 279.804C55.9853 280.748 53.9953 280.296 53.0477 278.791L51.0159 275.564C50.0698 274.059 50.522 272.069 52.0268 271.122L55.2567 269.08C56.7615 268.132 58.7516 268.586 59.7092 270.092L61.7381 273.329C62.6856 274.834 62.232 276.824 60.7272 277.772Z" fill="#F4781B"/>
<path d="M314.466 263.582L312.022 265.12C310.874 265.836 309.368 265.493 308.651 264.354L307.113 261.91C306.396 260.771 306.739 259.263 307.878 258.546L310.323 257C311.462 256.283 312.97 256.625 313.694 257.766L315.23 260.218C315.948 261.357 315.605 262.865 314.466 263.582Z" fill="#F4781B"/>
<path d="M61.5149 179.279L59.8502 180.327C59.0683 180.814 58.0416 180.581 57.5534 179.804L56.5051 178.14C56.017 177.364 56.2502 176.337 57.0264 175.849L58.6925 174.796C59.4686 174.308 60.4954 174.541 60.9893 175.319L62.0362 176.989C62.5243 177.762 62.291 178.789 61.5149 179.279Z" fill="#F4781B"/>
<path d="M309.839 136.076L308.174 137.124C307.393 137.611 306.366 137.377 305.878 136.601L304.829 134.937C304.341 134.16 304.574 133.134 305.351 132.646L307.017 131.593C307.793 131.105 308.82 131.338 309.314 132.116L310.36 133.786C310.849 134.559 310.615 135.586 309.839 136.076Z" fill="#F4781B"/>
</svg>
